<?xml version="1.0" encoding="UTF-8" standalone="no" ?>
<!DOCTYPE svg PUBLIC "-//W3C//DTD SVG 1.1//EN" "http://www.w3.org/Graphics/SVG/1.1/DTD/svg11.dtd">
<svg xmlns="http://www.w3.org/2000/svg" xmlns:xlink="http://www.w3.org/1999/xlink" version="1.1" width="1392.5557031249998" height="485.52000000000004" xml:space="preserve">
<desc>Created with Fabric.js 1.6.0-rc.1</desc>
<defs></defs>
<g style="stroke: none; stroke-width: 1; stroke-dasharray: none; stroke-linecap: butt; stroke-linejoin: miter; stroke-miterlimit: 10; fill: none; fill-rule: nonzero; opacity: 1;" transform="translate(10 10) scale(0.92 0.92)" >
  <circle cx="252.5" cy="252.5" r="252.5" style="stroke: none; stroke-width: 1; stroke-dasharray: none; stroke-linecap: butt; stroke-linejoin: miter; stroke-miterlimit: 10; fill: #FFD05B; fill-rule: nonzero; opacity: 0;" transform="  matrix(1 0 0 1 0 0) "/>
  <path d="M 252.5 55.7 C 144 55.7 55.7 144 55.7 252.5 S 144 449.3 252.5 449.3 S 449.3 361 449.3 252.5 S 361 55.7 252.5 55.7 z M 355.1 240.7 c -0.6 -18.6 -2.4 -36.4 -5.4 -53.2 c 38.6 12.3 66.3 31.4 73.8 53.2 H 355.1 z M 331.4 240.7 h -67.1 v -67.1 c 21.1 0.7 41.4 3.2 59.9 7.2 C 328.2 199.3 330.8 219.5 331.4 240.7 z M 264.3 149.9 V 81.4 c 21.8 7.5 40.9 35.3 53.2 73.8 C 300.8 152.3 282.9 150.4 264.3 149.9 z M 240.7 81.4 v 68.5 c -18.6 0.6 -36.4 2.4 -53.2 5.4 C 199.7 116.7 218.9 88.9 240.7 81.4 z M 240.7 173.6 v 67.1 h -67.1 c 0.7 -21.1 3.2 -41.4 7.2 -59.9 C 199.3 176.8 219.5 174.3 240.7 173.6 z M 149.9 240.7 H 81.4 c 7.5 -21.8 35.3 -40.9 73.8 -53.2 C 152.3 204.2 150.4 222.1 149.9 240.7 z M 149.9 264.3 c 0.6 18.6 2.4 36.4 5.4 53.2 c -38.6 -12.3 -66.3 -31.4 -73.8 -53.2 H 149.9 z M 173.6 264.3 h 67.1 v 67.1 c -21.1 -0.7 -41.4 -3.2 -59.9 -7.2 C 176.8 305.7 174.2 285.5 173.6 264.3 z M 240.7 355.1 v 68.5 c -21.8 -7.5 -40.9 -35.3 -53.2 -73.8 C 204.2 352.7 222.1 354.6 240.7 355.1 z M 264.3 423.6 v -68.5 c 18.6 -0.6 36.4 -2.4 53.2 -5.4 C 305.3 388.3 286.1 416.1 264.3 423.6 z M 264.3 331.4 v -67.1 h 67.1 c -0.7 21.1 -3.2 41.4 -7.2 59.9 C 305.7 328.2 285.5 330.7 264.3 331.4 z M 355.1 264.3 h 68.5 c -7.5 21.8 -35.3 40.9 -73.8 53.2 C 352.7 300.8 354.6 282.9 355.1 264.3 z M 415.5 194.1 c -18.1 -13.9 -42.6 -25.3 -71.6 -33.1 c -7.8 -28.9 -19.1 -53.5 -33.1 -71.6 C 359.4 107 398 145.6 415.5 194.1 z M 194.1 89.5 c -13.9 18.1 -25.3 42.6 -33.1 71.6 c -28.9 7.8 -53.5 19.1 -71.6 33.1 C 107 145.6 145.6 107 194.1 89.5 z M 89.5 310.9 c 18.1 13.9 42.6 25.3 71.6 33.1 c 7.8 28.9 19.1 53.5 33.1 71.6 C 145.6 398 107 359.4 89.5 310.9 z M 310.9 415.5 c 13.9 -18.1 25.3 -42.6 33.1 -71.6 c 28.9 -7.8 53.5 -19.1 71.6 -33.1 C 398 359.4 359.4 398 310.9 415.5 z" style="stroke: none; stroke-width: 1; stroke-dasharray: none; stroke-linecap: butt; stroke-linejoin: miter; stroke-miterlimit: 10; fill: #FFFFFF; fill-rule: nonzero; opacity: 1;" transform=" matrix(1 0 0 1 0 0) " stroke-linecap="round" />
  <path d="M 380.3 307.3 l -18.6 -117.8 l -117.8 18.6 l 32.3 23.5 c -0.5 1.2 -1.6 3.6 -3.2 7.1 c -1.3 2.5 -2.9 5.3 -4.8 8.8 c -2.2 3.2 -4.4 7.1 -7.5 10.9 c -1.5 2 -3 4.1 -4.9 6 c -1.8 2 -3.5 4.3 -5.7 6.2 c -4.1 4.2 -8.7 8.5 -14 12.6 c -2.6 2 -5.3 4.2 -8.3 6.1 c -1.5 1 -2.9 2 -4.4 3 c -1.5 0.9 -3.1 1.9 -4.6 2.8 c -6.2 3.9 -13 7.3 -19.9 10.6 c -7 3.2 -14.2 6.1 -21.6 8.7 c -7.3 2.6 -14.8 4.8 -22.1 6.7 c -7.3 1.9 -14.5 3.5 -21.4 4.7 c -6.9 1.3 -13.5 2.3 -19.7 3.1 c -12.3 1.6 -22.7 2.2 -30 2.5 c -7.3 0.2 -11.5 0.1 -11.5 0.1 l -0.2 1.1 c 0 0 15.8 6.2 41.1 11.7 c 6.3 1.3 13.2 2.7 20.6 3.8 c 7.4 1.2 15.3 2.1 23.5 2.9 c 8.2 0.7 16.8 1.2 25.7 1.2 c 8.8 0.1 17.9 -0.3 27.1 -1.1 c 9.1 -0.9 18.4 -2.1 27.5 -4 c 2.3 -0.5 4.6 -1 6.8 -1.4 c 2.3 -0.6 4.5 -1.2 6.8 -1.7 c 4.5 -1.1 8.9 -2.6 13.3 -4 c 8.7 -2.9 17.1 -6.3 24.9 -10 c 4 -1.7 7.6 -3.9 11.3 -5.8 c 3.7 -1.9 7 -4.1 10.3 -6.1 c 6.7 -4 12.3 -8.5 17.4 -12.2 c 4.9 -4.1 9.2 -7.7 12.6 -10.8 c 4.6 -4.5 7.8 -7.7 9.3 -9.2 L 380.3 307.3 z" style="stroke: none; stroke-width: 1; stroke-dasharray: none; stroke-linecap: butt; stroke-linejoin: miter; stroke-miterlimit: 10; fill: #050404; fill-rule: nonzero; opacity: 1;" transform=" matrix(1 0 0 1 0 0) " stroke-linecap="round" />
</g>
  <g transform="translate(907.9 266.83) scale(2.78 2.78)">
   <text font-family="ADAMCG PRO" font-size="40" font-weight="normal" style="stroke: none; stroke-width: 1; stroke-dasharray: none; stroke-linecap: butt; stroke-linejoin: miter; stroke-miterlimit: 10; fill: #ffffff; fill-rule: nonzero; opacity: 1;" ><tspan x="-171.24" y="8.98" style="stroke: none; stroke-width: 0; stroke-dasharray: none; stroke-linecap: butt; stroke-linejoin: miter; stroke-miterlimit: 4; fill: #ffffff; fill-rule: ; opacity: 1;">M</tspan><tspan x="-137.14" y="8.98" style="stroke: none; stroke-width: 0; stroke-dasharray: none; stroke-linecap: butt; stroke-linejoin: miter; stroke-miterlimit: 4; fill: #ffffff; fill-rule: ; opacity: 1;">A</tspan><tspan x="-109.35" y="8.98" style="stroke: none; stroke-width: 0; stroke-dasharray: none; stroke-linecap: butt; stroke-linejoin: miter; stroke-miterlimit: 4; fill: #ffffff; fill-rule: ; opacity: 1;">S</tspan><tspan x="-88.23" y="8.98" style="stroke: none; stroke-width: 0; stroke-dasharray: none; stroke-linecap: butt; stroke-linejoin: miter; stroke-miterlimit: 4; fill: #ffffff; fill-rule: ; opacity: 1;">H</tspan><tspan x="-60.93" y="8.98" style="stroke: none; stroke-width: 0; stroke-dasharray: none; stroke-linecap: butt; stroke-linejoin: miter; stroke-miterlimit: 4; fill: #ffffff; fill-rule: ; opacity: 1;"> </tspan><tspan x="-48.94" y="8.98" style="stroke: none; stroke-width: 0; stroke-dasharray: none; stroke-linecap: butt; stroke-linejoin: miter; stroke-miterlimit: 4; fill: #ffffff; fill-rule: ; opacity: 1;">I</tspan><tspan x="-38.15" y="8.98" style="stroke: none; stroke-width: 0; stroke-dasharray: none; stroke-linecap: butt; stroke-linejoin: miter; stroke-miterlimit: 4; fill: #ffffff; fill-rule: ; opacity: 1;">N</tspan><tspan x="-8.64" y="8.98" style="stroke: none; stroke-width: 0; stroke-dasharray: none; stroke-linecap: butt; stroke-linejoin: miter; stroke-miterlimit: 4; fill: #ffffff; fill-rule: ; opacity: 1;">D</tspan><tspan x="18.35" y="8.98" style="stroke: none; stroke-width: 0; stroke-dasharray: none; stroke-linecap: butt; stroke-linejoin: miter; stroke-miterlimit: 4; fill: #ffffff; fill-rule: ; opacity: 1;">U</tspan><tspan x="45.99" y="8.98" style="stroke: none; stroke-width: 0; stroke-dasharray: none; stroke-linecap: butt; stroke-linejoin: miter; stroke-miterlimit: 4; fill: #ffffff; fill-rule: ; opacity: 1;">S</tspan><tspan x="67.1" y="8.98" style="stroke: none; stroke-width: 0; stroke-dasharray: none; stroke-linecap: butt; stroke-linejoin: miter; stroke-miterlimit: 4; fill: #ffffff; fill-rule: ; opacity: 1;">T</tspan><tspan x="90.46" y="8.98" style="stroke: none; stroke-width: 0; stroke-dasharray: none; stroke-linecap: butt; stroke-linejoin: miter; stroke-miterlimit: 4; fill: #ffffff; fill-rule: ; opacity: 1;">R</tspan><tspan x="116.08" y="8.98" style="stroke: none; stroke-width: 0; stroke-dasharray: none; stroke-linecap: butt; stroke-linejoin: miter; stroke-miterlimit: 4; fill: #ffffff; fill-rule: ; opacity: 1;">I</tspan><tspan x="126.87" y="8.98" style="stroke: none; stroke-width: 0; stroke-dasharray: none; stroke-linecap: butt; stroke-linejoin: miter; stroke-miterlimit: 4; fill: #ffffff; fill-rule: ; opacity: 1;">E</tspan><tspan x="150.13" y="8.98" style="stroke: none; stroke-width: 0; stroke-dasharray: none; stroke-linecap: butt; stroke-linejoin: miter; stroke-miterlimit: 4; fill: #ffffff; fill-rule: ; opacity: 1;">S</tspan></text>
 </g>
</svg>